<svg xmlns="http://www.w3.org/2000/svg" viewBox="0 0 512 512">
  <defs>
    <linearGradient id="bg" x1="0" y1="0" x2="1" y2="1">
      <stop offset="0%" stop-color="#FFE7A6"/>
      <stop offset="100%" stop-color="#F7C85D"/>
    </linearGradient>
  </defs>
  <circle cx="256" cy="256" r="240" fill="url(#bg)"/>
  <path fill="#FFFFFF" opacity="0.95" d="M164 214c-4-40 8-74 35-99 6-6 15-7 22-2l35 23c16-9 34-14 54-14s38 5 54 14l35-23c7-5 16-4 22 2 27 25 39 59 35 99 22 22 36 51 36 83 0 66-54 120-120 120H253c-66 0-120-54-120-120 0-32 14-61 36-83z"/>
  <path fill="none" stroke="#FFFFFF" stroke-width="34" stroke-linecap="round" opacity="0.9"
    d="M96 330c40 68 124 112 219 112 72 0 138-25 183-68"/>
</svg>
