<svg xmlns="http://www.w3.org/2000/svg" viewBox="0 0 512 512" aria-label="CatCircle logo" role="img">
  <defs>
    <linearGradient id="bg" x1="0" y1="0" x2="1" y2="1">
      <stop offset="0%" stop-color="#FFE7A6"/>
      <stop offset="100%" stop-color="#F7C85D"/>
    </linearGradient>
  </defs>

  <!-- Background circle -->
  <circle cx="256" cy="256" r="240" fill="url(#bg)"/>

  <!-- Cat head (simple silhouette) -->
  <path fill="#FFFFFF" opacity="0.95" d="M164 210c-4-42 8-78 35-104 6-6 15-7 22-2l35 24c16-9 34-14 54-14s38 5 54 14l35-24c7-5 16-4 22 2 27 26 39 62 35 104 23 23 37 54 37 87 0 70-56 126-126 126H253c-70 0-126-56-126-126 0-33 14-64 37-87z"/>

  <!-- Ring/Orbit stroke -->
  <path fill="none" stroke="#FFFFFF" stroke-width="28" stroke-linecap="round" opacity="0.9"
    d="M90 320c40 70 128 118 228 118 74 0 142-26 188-70"/>
</svg>
